<?xml version="1.0"?>
<svg version="1.1" xmlns="http://www.w3.org/2000/svg" width="260" height="48" style="border: dashed 2px #aaa"><path fill="#ffffff" d="M16.44,43.2l0-2.72l2.4-0.96l0-15.04l-2.4-0.96l0-2.72l7.36-0.16l8.96,0l0,6.08l-2.976,0l-0.8-2.24l-5.184,0l0,5.6l6.624,0l0,3.52l-6.624,0l0,5.92l2.944,0.96l0,2.72l-10.304,0z M36.90432,43.2l0-2.72l2.4-0.96l0-15.04l-2.4-0.96l0-2.72l8.256-0.16l4.8,10.656l5.024-10.496l7.68-0.16l0,2.88l-2.304,0.96l0,15.04l2.4,0.96l0,2.72l-9.536,0l0-2.72l2.496-0.96l0-12.032l-0.864,2.112l-3.616,7.52l-3.456,0.16l-3.68-7.584l-0.544-1.664l0,11.488l2.464,0.96l0,2.72l-9.12,0z M78.42464,20.256c6.4,0,10.08,4.224,10.08,11.36c0,7.2-4.32,12-10.72,12s-9.92-4-9.92-11.52c0-7.36,4.064-11.84,10.56-11.84z M78.26464,24.256c-3.2,0-4.96,1.984-4.96,7.68c0,5.28,1.44,7.68,4.64,7.68s5.12-2.08,5.12-7.84c0-5.28-1.6-7.52-4.8-7.52z M92.64896,23.52l0-2.72l9.92-0.16l0,2.88l-2.368,0.928l2.944,9.184l1.024,3.936l1.024-3.776l3.168-9.312l-2.432-0.96l0-2.72l9.568-0.16l0,2.88l-2.336,0.96l-6.752,18.72l-5.12,0l-6.464-18.784z M119.16128,43.2l0-2.72l2.4-0.96l0-15.04l-2.4-0.96l0-2.72l9.76-0.16l0,2.88l-2.4,0.96l0,15.04l2.4,0.96l0,2.72l-9.76,0z M147.6896,29.76l0,3.52l-6.464,0l0,6.08l5.728,0l0.736-2.624l2.88,0l0,6.464l-16.704,0l0-2.72l2.4-0.96l0-15.04l-2.4-0.96l0-2.72l7.36-0.16l8.96,0l0,6.176l-2.88,0l-0.8-2.336l-5.28,0l0,5.28l6.464,0z M171.40224,39.52l0-15.04l-3.04,0l-0.8,3.04l-2.944,0l0-6.88l18.56,0l0,6.88l-2.976,0l-0.8-3.04l-3.04,0l0,15.04l3.04,0.96l0,2.72l-11.04,0l0-2.72z M198.04256,20.256c6.4,0,10.08,4.224,10.08,11.36c0,7.2-4.32,12-10.72,12s-9.92-4-9.92-11.52c0-7.36,4.064-11.84,10.56-11.84z M197.88256,24.256c-3.2,0-4.96,1.984-4.96,7.68c0,5.28,1.44,7.68,4.64,7.68s5.12-2.08,5.12-7.84c0-5.28-1.6-7.52-4.8-7.52z M213.22688,43.2l0-2.72l2.4-0.96l0-15.04l-2.4-0.96l0-2.72l7.36-0.16l3.04,0c4.896,0,7.776,2.56,7.776,6.72c0,5.376-3.296,8-9.12,8l-1.696,0l0,4.16l2.4,0.96l0,2.72l-9.76,0z M220.58688,31.616l1.696,0c2.656,0,4.16-1.248,4.16-3.616c0-2.08-1.12-3.52-3.296-3.52l-2.56,0l0,7.136z"/><path fill="#" d=""/></svg>
